<?xml version="1.0" encoding="UTF-8"?><svg xmlns="http://www.w3.org/2000/svg" viewBox="0 0 557.76 132"><defs><style>.d{fill:#fff;fill-rule:evenodd;}</style></defs><g id="a"/><g id="b"><g id="c"><path class="d" d="M503.48,96.18h14.73c.01-3.39-1.66-5.71-4.06-6.71-1.4-.58-3.84-.61-5.38-.14-2.4,.73-3.75,1.96-4.68,4.16-.31,.74-.6,1.67-.61,2.69Zm-45.76-7.18c-.11,.07-.3,0-.47,.05-.44,.09-.88,.19-1.32,.28-1.38,.5-2.57,1.27-3.35,2.36-.9,1.26-1.36,2.78-1.79,4.53-.16,.64-.04,1.25-.19,1.94-.15,.73-.21,2.02-.05,2.79v.9c.11,.53,.06,1.11,.19,1.65,.71,2.99,1.54,5.27,3.83,6.66,.6,.37,1.37,.61,2.12,.8,.36,.03,.72,.06,1.09,.09,.5,.11,1.3,.06,1.75-.05,.5-.11,.88-.09,1.32-.24,1.33-.44,2.35-1.15,3.35-1.89,.35-.26,1.5-1.2,1.65-1.56v-10.72c-.16-.27-.02-.8-.09-1.13-.14-.61-.2-1.28-.42-1.84-1.21-3.01-3.34-4.64-7.6-4.63Zm-36.69,0c-.2,.12-.54,.03-.8,.09-.6,.14-1.21,.25-1.75,.47-2.09,.89-3.42,2.71-4.16,4.96-.33,1-.37,2.1-.61,3.21-.02,.52-.03,1.04-.05,1.56-.13,.64-.09,1.93,.05,2.55v.57c.11,.71,.22,1.42,.33,2.13,.75,2.69,1.8,4.59,4.06,5.76,.62,.32,1.34,.52,2.12,.71,.28,.02,.57,.03,.85,.05,.33,.07,1.06,.14,1.46,.05,.77-.17,1.55-.16,2.22-.42,2.01-.81,3.36-2.19,4.2-4.16,.42-.98,.59-2.11,.85-3.26,.03-.44,.06-.88,.09-1.32,.27-1.27,.12-3.91-.14-5.05-.25-1.08-.29-2.01-.66-2.93-1.35-3.3-3.39-4.97-8.08-4.96Zm-54.68,0c-.27,.16-.76,.06-1.09,.14-.53,.13-1.08,.27-1.56,.47-1.98,.86-3.31,2.64-4.01,4.77-.35,1.06-.4,2.21-.66,3.4-.02,.55-.03,1.1-.05,1.65-.12,.59-.08,1.79,.05,2.36v.57c.17,.78,.17,1.61,.38,2.36,.72,2.59,1.83,4.44,4.01,5.57,.62,.32,1.34,.52,2.12,.71,.28,.02,.57,.03,.85,.05,.33,.07,1.06,.14,1.46,.05,.94-.2,1.82-.24,2.6-.57,1.99-.84,3.19-2.47,4.01-4.49,.38-.94,.47-2.04,.71-3.12,.02-.31,.03-.63,.05-.94,.27-1.28,.13-3.95-.14-5.1-.26-1.14-.31-2.11-.71-3.07-1.32-3.22-3.46-4.82-8.03-4.82Zm-149.46,7.18h14.73c.04-3.66-1.8-5.82-4.49-6.8-.87-.32-2.5-.61-3.73-.33-.62,.14-1.28,.2-1.84,.43-2.6,1.06-4.53,3.22-4.68,6.71Zm267.8-13.6c2.06-.02,3.24,.69,4.01,1.94,.53,.85,.52,2.03,.52,3.45v20.97c0,1.91,.28,5.39-.43,6.57-.72,1.2-1.66,1.78-3.26,2.13-.95,.21-2.07-.39-2.55-.71-.89-.59-1.43-1.34-1.75-2.5-.15-.56-.05-1.39-.05-2.03v-24.61c0-1.06-.03-2.05,.28-2.79,.37-.87,1.17-1.71,2.03-2.08,.34-.15,.86-.13,1.18-.33Zm58.41-.47c4.98-.1,9.5,1.38,11.95,3.83,.49,.49,1.04,.97,1.32,1.65,.46,1.1,.14,2.62-.38,3.4-.66,.98-2.42,2.1-4.11,1.42-.86-.35-1.48-1-2.22-1.46-1.12-.71-2.32-1.22-3.78-1.61-1.95-.51-5.16-.12-6,1.04-.25,.35-.41,.78-.52,1.28-.38,1.67,1.48,2.59,2.41,3.07,1.52,.78,3.31,1.17,5.05,1.75,2.31,.76,4.63,1.59,6.52,2.79,1.59,1.01,2.97,2.51,3.73,4.35,.22,.54,.27,1.04,.42,1.65,.14,.56,.36,2.24,.19,3.02-.15,.66-.18,1.36-.38,1.98-.35,1.09-.86,2.08-1.46,2.93-1.41,1.96-3.73,3.15-6.28,3.97-1.07,.34-2.23,.36-3.4,.61h-.61c-.94,.2-3.03,.11-3.92-.09-1.06-.24-2.02-.21-2.97-.52-2.71-.87-4.97-1.92-6.85-3.59-1.09-.97-2.66-2.86-1.46-4.91,.66-1.13,2.46-2.54,4.39-1.75,1,.41,1.68,1.24,2.55,1.8,1.32,.84,2.73,1.36,4.49,1.8,.6,.15,1.99,.27,2.6,.14,.49-.02,.98-.03,1.46-.05,1.87-.42,3.31-.73,3.73-2.6,.38-1.68-1.48-2.78-2.41-3.26-1.5-.78-3.26-1.17-5.01-1.75-2.44-.81-4.93-1.63-6.85-2.98-1.53-1.07-2.7-2.5-3.45-4.35-.24-.59-.32-1.29-.47-1.94-.24-1.06-.1-2.78,.14-3.69,.15-.56,.18-1.02,.38-1.51,.77-1.88,2.06-3.37,3.68-4.39,1.36-.86,2.98-1.3,4.77-1.75,.63-.08,1.26-.16,1.89-.24,.27-.06,.66,.08,.85-.05Zm-39.86,20.83c-.06,3.91,1.98,6.06,4.72,7.18,.59,.24,1.16,.26,1.84,.42,1.37,.33,3.76,.27,5.05-.09,1.17-.33,2.35-.7,3.31-1.28,.77-.47,1.51-1.09,2.41-1.42,1.77-.65,3.54,.52,4.16,1.51,.15,.24,.18,.47,.28,.76,.13,.36,.33,1.07,.19,1.65-.42,1.75-1.54,2.54-2.83,3.4-1.8,1.2-3.66,1.84-6.04,2.5-.74,.11-1.48,.22-2.22,.33h-.57c-.91,.2-3.04,.15-3.92-.05-.28-.02-.57-.03-.85-.05-.77-.14-1.54-.28-2.31-.42-4.85-1.48-7.82-3.86-9.73-8.27-.59-1.36-.84-2.91-1.23-4.49-.16-.66-.04-1.28-.19-1.98-.11-.49,.03-1.09-.09-1.65-.19-.91-.09-2.8,.09-3.64,.05-.54,.09-1.07,.14-1.61,.27-1.13,.41-2.26,.76-3.31,1.43-4.31,4.08-7.41,8.12-9.12,1.21-.51,2.56-.7,3.97-1.04,.46-.03,.91-.06,1.37-.1,.98-.21,2.84-.17,3.78,.05,.92,.21,1.72,.13,2.55,.38,2.86,.87,5.35,2.12,6.94,4.25,1.03,1.38,1.79,2.89,2.46,4.68,.38,1.03,.44,2.2,.71,3.35,.16,.71,.09,1.49,.09,2.27,0,2.29-.27,4.12-1.61,5.05-1.39,.97-4.19,.71-6.52,.71h-14.83Zm-45.48-20.83c8.53-.16,13.42,3.5,15.49,9.83,.37,1.13,.33,2.38,.61,3.64v1.28c.17,.76,.05,1.84,.05,2.69v12.9c0,1.11,.17,2.7-.05,3.69-.02,.71-.03,1.42-.05,2.13-.3,1.31-.27,2.64-.66,3.83-1.22,3.71-2.9,6.03-5.95,7.89-2.04,1.24-5.52,2.03-8.78,2.03-1.13,0-2.36,.08-3.31-.14-.27-.02-.54-.03-.8-.05-.93-.22-1.9-.28-2.79-.57-1.73-.57-3.25-1.23-4.58-2.17-1.26-.88-2.51-1.83-2.93-3.54-.12-.5-.05-1.17,.09-1.61,.47-1.42,2.35-3.25,4.49-2.46,.93,.34,1.64,1,2.41,1.51,.98,.66,2.15,1.25,3.35,1.65,.73,.24,1.52,.29,2.31,.47h.76c.85,.18,2.38-.07,3.07-.28,.54-.17,.99-.22,1.46-.42,1.95-.85,3.06-2.44,3.64-4.68,.34-1.3,.14-3.15,.14-4.68h-.05c-.45,.66-1.28,.99-1.98,1.42-3.25,1.98-9.08,1.93-12.75,.33-3.76-1.64-6.06-4.68-7.41-8.74-.33-.99-.44-2.07-.71-3.12-.03-.33-.06-.66-.09-.99-.1-.46-.08-1.09-.19-1.56v-.85c-.17-.79-.12-3.09,.05-3.83,.02-.36,.03-.72,.05-1.09,.29-1.25,.29-2.53,.66-3.68,1.64-5.02,3.93-8.07,8.78-9.87,1.12-.42,2.37-.51,3.64-.8,.42-.1,1.77,.02,2.03-.14Zm-36.69,0c7.75-.15,12.94,2.95,15.25,8.22,.51,1.16,.86,2.43,1.23,3.73,.1,.35,.05,.63,.14,.99,.34,1.34,.42,2.94,.43,4.58,0,.66,.08,1.5-.05,2.08-.03,.6-.06,1.2-.09,1.8-.14,.6-.12,1.27-.28,1.89-.33,1.26-.56,2.51-1.04,3.64-1.72,4.06-4.53,6.73-8.88,8.17-.93,.31-1.93,.38-2.93,.61-.47,.11-.98,.04-1.42,.14h-1.04c-.3,.06-.88,.07-1.18,0l-1.65-.05c-.46-.1-.97-.07-1.46-.19-.75-.18-1.55-.34-2.22-.57-5.05-1.68-7.77-4.6-9.45-9.64-.35-1.05-.44-2.19-.71-3.31-.03-.42-.06-.85-.09-1.28-.19-.86-.14-1.92-.14-2.93,0-.44-.04-1.01,.05-1.37,.06-.26,0-.65,.05-.85,.05-.61,.09-1.23,.14-1.84,.43-1.81,.66-3.52,1.32-5.05,1.71-3.95,4.53-6.57,8.78-7.98,1.02-.34,2.14-.4,3.26-.66,.42-.1,1.72,.02,1.98-.14Zm-54.68,0c7.52-.14,11.94,2.6,14.73,7.18,.73,1.2,1.17,2.71,1.61,4.16,.12,.38,.08,.69,.19,1.09,.39,1.46,.52,3.2,.52,5.01,0,.7,.09,1.6-.05,2.22v.76c-.1,.44-.03,.94-.14,1.42-.13,.72-.25,1.45-.38,2.17-.34,1.21-.66,2.41-1.13,3.5-1.65,3.76-4.57,6.25-8.64,7.61-.91,.3-1.91,.38-2.88,.61-.49,.12-1.01,.04-1.46,.14h-1.04c-.3,.06-.88,.07-1.18,0l-1.65-.05c-.46-.1-.97-.07-1.46-.19-.74-.19-1.55-.34-2.22-.57-4.76-1.57-7.27-4.17-9.11-8.65-.5-1.23-.65-2.63-.99-4.02-.03-.36-.06-.72-.09-1.09-.07-.3-.07-.77-.14-1.09v-.8c-.14-.62-.14-2.21,0-2.83,.06-.26,0-.65,.05-.85,.03-.5,.06-1.01,.09-1.51,.46-1.95,.66-3.79,1.37-5.43,1.71-3.95,4.53-6.57,8.78-7.98,1.02-.34,2.14-.4,3.26-.66,.42-.1,1.72,.02,1.98-.14Zm-34.14,0c7.5-.11,11.04,2.82,12.66,8.65,.24,.85,.18,1.8,.38,2.69v.99c.15,.72,.05,1.74,.05,2.55v13.75c0,1.37,.2,3.18-.19,4.25-.4,1.09-1.22,1.93-2.27,2.36-.48,.2-1.32,.37-1.94,.24-.41-.09-.69-.03-1.04-.14-1.36-.45-2.22-1.44-2.6-2.88-.1-.38-.05-.88-.05-1.32v-13.04c0-4.96,.14-8.69-3.35-10.2-.74-.32-2.5-.75-3.54-.52-.62,.13-1.27,0-1.84,.14-1.49,.38-2.89,.97-3.68,2.03-1.65,2.2-1.56,4.55-1.56,8.36v12.47c0,.82,.07,1.71-.14,2.36-.4,1.23-1.16,1.97-2.31,2.46-.64,.27-1.72,.47-2.6,.24-1.49-.4-2.49-1.33-2.93-2.79-.17-.58-.09-1.41-.09-2.13v-24.19c0-1.38-.04-2.71,.38-3.64,.93-2.05,3.98-2.99,6.14-1.42,.61,.44,1.09,1.21,1.37,1.98,.11,.31,.05,.88,.24,1.13v-.05c.52-.48,.85-1.18,1.42-1.61,1.07-.81,2.19-1.49,3.54-2.03,.84-.34,1.79-.4,2.74-.61,.35-.08,.95,.08,1.23-.09Zm-73.19,0c5.62-.12,9.61,1.72,12.32,4.53,.51,.53,1.02,1.16,1.28,1.94,.47,1.46-.38,3.22-1.13,3.78-1.19,.88-3.09,1.13-4.44,.19-.74-.52-1.24-1.36-1.98-1.89-.76-.55-1.67-1-2.64-1.32-.37-.12-.68-.09-1.09-.19-.49-.12-1.67-.29-2.31-.14-.99,.22-1.84,.31-2.64,.66-2.24,.98-3.37,3.16-4.16,5.62-.25,.78-.24,1.67-.42,2.5v.52c-.18,.86-.19,2.59,0,3.45,.02,.33,.03,.66,.05,.99,.31,1.35,.45,2.64,.94,3.78,.84,1.93,2.18,3.35,4.16,4.16,.43,.18,.82,.16,1.32,.28,.68,.16,1.89,.28,2.69,.09,.63-.15,1.31-.19,1.89-.43,1.22-.49,2.34-1.08,3.35-1.79,.53-.37,1.03-.91,1.65-1.18,2.28-.99,4.4,.53,4.96,2.22,.66,2.03-.64,3.51-1.7,4.3-.42,.31-.82,.71-1.27,.99-1.47,.93-3.14,1.59-4.96,2.17-1.13,.37-2.39,.33-3.64,.61-.42,.09-1.72,.08-2.08,0l-1.65-.05c-.55-.12-1.18-.09-1.75-.24-.69-.18-1.45-.36-2.08-.57-4.77-1.59-7.54-4.64-9.11-9.4-.36-1.1-.48-2.31-.76-3.5-.03-.42-.06-.85-.09-1.28-.09-.41,0-.93-.1-1.42-.17-.8-.12-3.07,.05-3.83,.14-.65,0-1.22,.14-1.84,.43-1.83,.65-3.56,1.32-5.1,1.71-3.96,4.51-6.47,8.78-7.89,1.1-.36,2.33-.39,3.54-.66,.44-.1,1.2,.13,1.56-.09Zm-42.41,20.83c-.06,3.89,1.99,6.06,4.72,7.18,.59,.24,1.16,.26,1.84,.42,1.43,.35,3.7,.29,5.05-.09,1.21-.34,2.41-.72,3.4-1.32,.8-.49,1.53-1.1,2.5-1.42,2.1-.68,3.75,.93,4.25,2.27,.17,.44,.34,1.14,.19,1.75-.45,1.82-1.73,2.67-3.12,3.54-1.73,1.09-3.51,1.68-5.76,2.31-.74,.11-1.48,.22-2.22,.33h-.57c-.53,.11-1.64,.17-2.17,.05h-1.13c-.45-.1-1.04-.09-1.46-.19-1.01-.24-1.92-.22-2.83-.52-4.43-1.45-7.39-3.93-9.16-8.03-.65-1.5-.9-3.19-1.32-4.96-.14-.57-.07-1.16-.19-1.7v-.71c-.13-.6-.18-1.95-.05-2.55,.14-.62-.03-1.3,.1-1.84,.03-.44,.06-.88,.09-1.32,.27-1.14,.36-2.3,.71-3.35,1.56-4.68,4.18-7.77,8.59-9.59,1.21-.5,2.57-.62,3.97-.94,.63-.15,1.26,.05,1.94-.1,.73-.15,2.16-.06,2.83,.1,.47,.05,.94,.09,1.42,.14,1.82,.47,3.51,.88,4.91,1.75,.57,.35,1.12,.78,1.65,1.18,.11,.13,.22,.25,.33,.38,.37,.28,.77,.63,1.04,.99,1.05,1.4,1.88,2.87,2.55,4.68,.4,1.08,.48,2.28,.76,3.5,.16,.71,.09,1.52,.1,2.31,0,2.19-.21,4.05-1.46,4.96-1.43,1.04-4.2,.8-6.66,.8h-14.83Zm267.94-34.01c2.43-.03,3.97,.5,4.86,1.98,.28,.46,.33,.97,.47,1.56,.12,.49,.22,1.28,.09,1.84-.11,.51-.04,.88-.19,1.32-.52,1.56-1.65,2.4-3.31,2.83-.52,.13-1.39,.17-1.94,.05-.4-.09-.73-.02-1.09-.14-1.66-.54-2.47-1.51-2.93-3.26-.16-.6-.26-1.73-.1-2.46,.1-.42,.17-.89,.33-1.28,.45-1.08,1.3-1.85,2.46-2.22,.44-.08,.88-.16,1.32-.24Zm-288.62,5.53v37.6c0,.82,.07,1.71-.14,2.36-.38,1.17-1.02,1.95-1.98,2.55-.48,.3-1.64,.86-2.55,.66-1.94-.43-3.11-1.21-3.78-2.88-.32-.81-.24-2.01-.24-3.12v-37.18h-8.93c-1.68,0-3.41,.11-4.44-.52-1.69-1.05-2.5-3.62-1.09-5.57,.51-.7,1.36-1.21,2.31-1.46,.59-.16,1.45-.05,2.12-.05h28.62c.7,0,1.6-.12,2.22,.05,.73,.2,1.31,.54,1.84,.94,1.6,1.21,1.53,4.49-.05,5.67-1.5,1.12-2.87,.94-5.43,.94h-8.5Zm197.15-10.53c2.36-.01,3.71,1.35,4.2,3.21,.11,.42,.05,.98,.05,1.46v37.7c0,.81-.16,2.2,.05,2.88,.36,1.18,1.61,.77,2.69,1.18,1.05,.4,1.91,1.27,2.27,2.36,.66,2.01-.55,3.73-1.7,4.44-.42,.26-1.01,.35-1.56,.47-.64,.14-1.9-.07-2.41-.19-.42-.1-.75-.07-1.13-.19-1.72-.55-3.18-1.3-4.16-2.6-.79-1.06-1.31-1.9-1.75-3.35-.19-.65-.18-1.35-.33-2.03v-.99c-.13-.61-.05-1.48-.05-2.17v-35.57c0-1.62-.14-3.46,.47-4.49,.48-.8,1.17-1.47,2.08-1.84,.32-.13,1-.12,1.27-.28Zm-111.3,0c2.33-.02,3.72,1.33,4.2,3.17,.13,.5,.05,1.22,.05,1.79v17.62h.1c.26-.73,1.42-1.64,2.03-2.08,1.41-1.01,2.75-1.59,4.72-2.08,.46-.11,.93-.09,1.37-.19h.76c.77-.16,1.98-.06,2.69,.1,.73,.16,1.36,.1,2.03,.28,1.3,.36,2.56,.81,3.59,1.46,2.33,1.47,3.56,3.81,4.39,6.8,.44,1.61,.38,3.57,.38,5.57v14.69c0,2.89,.18,4.67-1.61,5.86-.41,.27-.95,.47-1.46,.61-.37,.1-.91,.13-1.28,.05-.41-.09-.69-.03-1.04-.14-1.34-.44-2.23-1.42-2.6-2.83-.11-.43-.05-1.01-.05-1.51v-14.08c0-2.87,0-5.47-1.13-7.18-.7-1.05-1.84-1.79-3.21-2.17-.37-.1-.78-.11-1.13-.19h-.76c-.5-.11-1.39-.08-1.94,.05-1.08,.24-2.07,.44-2.88,.94-3.06,1.89-2.98,5.44-2.98,10.35v12.38c0,.46,.06,1.02-.05,1.42-.39,1.41-1.18,2.25-2.5,2.74-.55,.2-1.45,.42-2.22,.24-1.61-.38-2.71-1.26-3.16-2.79-.27-.92-.09-2.36-.09-3.45v-41.52c0-1.62-.04-3.04,.57-4.02,.42-.67,1.16-1.29,1.94-1.61,.32-.13,1-.12,1.28-.28Zm5.01-26.5h-7.18c-1.89,0-3.61,0-4.77,.71-.79,.49-1.41,1.28-1.7,2.27-.1,.35-.01,.65-.09,1.04-.12,.57,.04,1.47,.24,1.94,.32,.77,.93,1.47,1.61,1.89,1.74,1.07,5.4,1.26,7.51,.38,2.09-.88,3.61-2.34,4.25-4.68,.27-.98,.15-2.36,.14-3.54ZM10.15,34.3c4.23-.07,7.62,1.79,9.26,4.25,.41,.62,.63,1.36,.94,2.08,.57,1.29,1.22,2.56,1.79,3.87,.56,1.26,1.33,2.52,1.89,3.78,.77,1.76,1.62,3.65,2.6,5.24,.17,.27,.23,.57,.38,.85,.36,.7,.77,1.43,1.13,2.13,.2,.38,.3,.77,.52,1.13,1.43,2.36,2.48,4.96,3.92,7.32,.99,1.63,1.83,3.37,2.83,5.01,1.71,2.8,3.35,5.64,5.1,8.41,3.02,4.78,6.33,9.34,9.63,13.84,.98,1.33,2.17,2.51,3.16,3.83,.28,.37,.71,.67,.99,1.04,.44,.59,.97,1.07,1.42,1.65,.28,.27,.57,.54,.85,.8,.6,.8,1.42,1.62,2.22,2.22,.17,.19,.35,.38,.52,.57,.26,.26,.56,.49,.85,.71,.27,.21,.48,.55,.76,.76,2.75,2.08,5.29,4.32,9.21,5.24,.71,.17,1.89-.03,2.41-.19,.55-.17,1.05-.21,1.56-.43,.76-.32,1.54-.8,2.22-1.23,1.43-.89,2.76-1.76,4.06-2.74,.73-.55,1.34-1.28,2.08-1.84,.24-.25,.47-.5,.71-.76,.77-.58,1.78-1.59,2.36-2.36,.27-.25,.54-.5,.8-.76,.74-.98,1.66-1.8,2.41-2.79,.23-.3,.58-.55,.8-.85,.96-1.28,2.08-2.45,3.02-3.73,2.44-3.32,4.91-6.7,7.13-10.2,1.95-3.08,3.85-6.19,5.76-9.31,.82-1.34,1.55-2.74,2.36-4.06,1.49-2.43,2.68-5.04,4.16-7.46,.93-1.53,1.58-3.21,2.5-4.72,.28-.45,.39-.96,.66-1.42,.99-1.63,1.86-3.51,2.64-5.29,.57-1.3,1.36-2.61,1.94-3.92,.57-1.3,1.19-2.55,1.75-3.83,.51-1.17,.94-2.27,1.65-3.21,.41-.55,1.04-1.01,1.61-1.42,1.1-.79,2.28-1.42,3.73-1.89,.63-.2,1.22-.13,1.94-.28,.59-.13,1.79-.09,2.36,.05,.63,.15,1.31,.24,1.89,.47,2.63,1.07,4.17,2.47,5.57,4.77,.5,.82,.84,1.8,1.13,2.83,.03,.28,.06,.57,.09,.85,.1,.44,.22,1.32,.09,1.89-.34,1.52-.5,2.89-1.04,4.2-.95,2.31-2.02,4.49-3.02,6.75-.35,.8-.88,1.61-1.23,2.41-.64,1.46-1.36,2.87-2.08,4.25-.5,.97-.91,1.98-1.46,2.88-.28,.45-.42,.95-.66,1.42-.62,1.19-1.24,2.45-1.94,3.59-.11,.25-.22,.5-.33,.76-.68,1.12-1.2,2.36-1.89,3.5-2.5,4.11-4.68,8.38-7.23,12.42-3.15,5-6.46,9.83-9.82,14.6-1.24,1.76-2.64,3.41-3.92,5.15-.22,.3-.54,.56-.76,.85-1.36,1.84-2.98,3.43-4.34,5.24-.47,.63-1.28,1.18-1.75,1.8-.4,.53-.9,.95-1.37,1.42-.45,.45-.85,.93-1.37,1.32-.45,.34-.78,.89-1.23,1.23-1.23,.93-2.29,2.05-3.54,2.98-.73,.55-1.42,1.22-2.17,1.75-2.31,1.63-4.79,3.2-7.51,4.39-1.62,.71-3.33,1.27-5.1,1.84-.68,.22-1.32,.24-2.03,.43-1.94,.51-5.9,.9-8.17,.38-.56-.13-1.02-.05-1.56-.19-2.06-.53-4.03-.94-5.86-1.7-3.06-1.27-5.9-2.75-8.45-4.53-1.32-.92-2.54-1.97-3.83-2.93-1.27-.95-2.32-2.21-3.59-3.16l-.99-1.04c-.86-.65-1.85-1.69-2.5-2.55-.44-.58-1.12-1.02-1.56-1.61-1.15-1.52-2.49-2.86-3.64-4.39-.99-1.33-2.18-2.58-3.16-3.92-2.31-3.15-4.59-6.33-6.85-9.54-1.4-1.99-2.61-4.07-3.92-6.14-4.11-6.51-7.92-13.33-11.66-20.22-.46-.85-.88-1.71-1.32-2.55-.16-.32-.24-.64-.42-.94-.89-1.47-1.65-3.11-2.36-4.72-.37-.83-.91-1.67-1.27-2.5-1.25-2.84-2.64-5.61-3.83-8.5-1.15-2.79-1.09-6.6,.38-9.02,1.42-2.34,3-4.34,5.62-5.48,.68-.3,1.46-.47,2.22-.66,.33-.08,.86,.03,1.13-.14Zm335.33-3.16h14.73c0-3.37-1.62-5.7-4.01-6.71-1.33-.56-3.81-.65-5.34-.19-2.69,.81-4.15,2.22-5.01,4.87-.19,.58-.37,1.28-.38,2.03Zm-30.13-7.18c-.32,.2-1.38,.21-1.79,.38-1.54,.62-2.72,1.6-3.54,2.93-.69,1.11-1.01,2.48-1.37,3.92-.16,.64-.04,1.24-.19,1.94-.15,.73-.21,2.02-.05,2.79v.85c.06,.28,.08,.72,.14,.99,.18,.81,.14,1.53,.38,2.27,.76,2.38,1.82,4.07,3.78,5.24,.5,.19,1.01,.38,1.51,.57,2.62,.73,5.32-.25,6.94-1.28,.35-.22,.66-.56,.99-.8,.34-.25,1.4-1.12,1.56-1.46v-10.77c-.16-.27-.02-.8-.1-1.13-.15-.65-.23-1.35-.47-1.94-1-2.46-2.65-3.79-5.48-4.44-.67-.15-1.57-.05-2.31-.05Zm-92.04-6.47c1.98-.01,3.37,.99,3.97,2.36,.36,.82,.33,1.96,.33,3.17v24.47c0,.86,.05,1.72-.19,2.36-.54,1.47-1.65,2.32-3.31,2.69-.96,.22-1.88-.2-2.41-.47-.94-.49-1.61-1.23-1.98-2.27-.25-.69-.19-1.64-.19-2.55V23.29c0-1.27-.05-2.53,.33-3.4,.43-.99,1.3-1.77,2.31-2.17,.38-.08,.76-.16,1.13-.24Zm121.93,20.41c-.06,3.64,1.79,5.9,4.3,6.99,.54,.23,1.03,.3,1.65,.47,1.52,.42,3.98,.5,5.57,.05,1.23-.35,2.45-.72,3.45-1.32,.78-.48,1.52-1.11,2.46-1.42,2.01-.65,3.69,.71,4.25,2.03,.17,.41,.45,1.17,.28,1.89-.4,1.74-1.5,2.55-2.79,3.4-1.67,1.11-3.55,1.83-5.76,2.46-.62,.17-1.28,.19-1.89,.33-.3,.02-.6,.03-.9,.05-1.04,.23-3.54,.18-4.53-.05-.27-.02-.54-.03-.8-.05-.77-.19-1.61-.23-2.36-.47-4.63-1.5-7.55-3.81-9.4-8.08-.65-1.49-.9-3.16-1.32-4.91-.18-.75-.02-1.53-.19-2.31-.15-.71-.21-2.33-.05-3.07v-.94c.05-.33,.07-.82,.14-1.13,.02-.27,.03-.54,.05-.8,.27-1.12,.36-2.26,.71-3.31,1.52-4.57,4.11-7.72,8.41-9.49,1.11-.46,2.37-.64,3.64-.94,.25-.02,.5-.03,.76-.05,1.02-.23,3.18-.29,4.25-.05,.3,.02,.6,.03,.9,.05,.78,.18,1.61,.23,2.36,.47,2.53,.82,5,2.12,6.42,4.02,1.03,1.37,1.85,2.85,2.5,4.63,.4,1.09,.48,2.32,.76,3.54,.02,.39,.03,.79,.05,1.18,.12,.57,.13,1.7,0,2.27-.02,.35-.03,.69-.05,1.04-.24,1.02-.51,2.06-1.23,2.6-1.57,1.17-4.22,.94-6.94,.94h-14.69Zm-30.13-20.83c9-.16,13.89,3.29,16.06,9.97,.35,1.07,.3,2.27,.57,3.45v1.13c.17,.78,.05,1.87,.05,2.74v13.13c0,1.08,.16,2.79-.05,3.73l-.05,1.98c-.28,1.24-.25,2.51-.61,3.64-1.14,3.51-2.77,6.07-5.62,7.84-1.64,1.02-3.59,1.45-5.76,1.98-.71,.08-1.42,.16-2.12,.24h-.94c-.86,.18-2.61,.08-3.4-.09-.55-.13-1.03-.01-1.56-.14-.9-.22-1.83-.33-2.69-.61-1.53-.51-2.86-1.18-4.06-1.98-1.31-.88-2.59-1.88-3.02-3.64-.15-.6,.02-1.27,.19-1.7,.51-1.34,2.17-3.06,4.3-2.36,1.03,.34,1.76,1.07,2.6,1.61,1.09,.69,2.31,1.27,3.64,1.7,.68,.22,1.46,.26,2.22,.38,.98,.15,2.22,0,2.98-.19,.51-.13,.91-.12,1.37-.28,2.15-.8,3.52-2.22,4.2-4.49,.41-1.38,.24-3.39,.24-5.1h-.05c-.41,.6-1.2,.93-1.84,1.32-3.14,1.92-8.88,2.1-12.61,.52-3.81-1.61-6.09-4.45-7.56-8.41-.32-.87-.47-1.82-.71-2.74-.1-.4-.04-.72-.14-1.13-.16-.67-.12-1.51-.28-2.22v-.9c-.14-.64-.14-2.29,0-2.93,.02-.49,.03-.98,.05-1.46,.26-1.14,.21-2.33,.52-3.4,1.55-5.45,3.67-8.49,8.64-10.53,1.05-.43,2.26-.57,3.45-.85,.42-.1,1.77-.02,2.03-.19Zm-28.29,14.08c.04-4.13-1.1-5.58-4.2-6.57-.75-.24-1.63-.33-2.64-.33h-.76c-.7,.15-1.43,.17-2.08,.38-1.14,.38-2.22,.87-3.16,1.46-.83,.52-1.54,1.28-2.55,1.61-2.06,.66-3.73-.73-4.3-2.08-.2-.48-.42-1.32-.24-2.03,.38-1.42,1.38-2.35,2.41-3.12,.38-.28,.73-.64,1.13-.9,1.29-.81,2.75-1.38,4.34-1.89,.78-.25,1.64-.29,2.46-.47,.3-.02,.6-.03,.9-.05,.77-.17,3.09-.23,3.92-.05,.98,.21,2,.17,2.93,.43,5.04,1.4,8.1,3.64,9.49,8.69,.48,1.75,.33,4.11,.33,6.28v14.55c0,1.14,.05,2.28-.28,3.07-.68,1.6-2.91,3.11-5.24,2.13-1.44-.61-2.08-1.79-2.41-3.54-.05,.04,0,0-.05,.05-.49,.48-.77,1.19-1.32,1.61-1.43,1.08-2.48,1.67-4.49,2.22-.65,.09-1.29,.19-1.94,.28h-.66c-1.32,.28-3.66-.05-4.67-.33-3.87-1.07-6.3-2.69-7.79-6.14-.52-1.21-.94-2.6-.94-4.35v-1.46c.36-1.64,.57-3.04,1.32-4.25,1.41-2.28,3.59-3.73,6.38-4.63,.75-.24,1.57-.3,2.36-.47,.38-.02,.76-.03,1.13-.05,.47-.1,1.15-.05,1.7-.05h8.92Zm-40.89-14.08c5.27-.1,9.79,1.2,12.37,3.78,.48,.47,1.04,.95,1.32,1.61,.47,1.08,.19,2.67-.33,3.45-.65,.98-2.48,2.15-4.2,1.42-.9-.38-1.61-1.1-2.41-1.61-1.06-.67-2.26-1.11-3.64-1.46-.61-.16-1.26-.14-1.98-.14-2.27,0-3.96,.52-4.39,2.36-.4,1.73,1.38,2.73,2.36,3.17,2.61,1.15,5.8,1.9,8.45,3.02,.85,.36,1.66,.63,2.41,1.09,1.88,1.15,3.54,2.59,4.44,4.72,.22,.52,.27,1.01,.42,1.61,.22,.84,.42,2.31,.19,3.35-.13,.56-.16,1.17-.33,1.7-.33,1.02-.76,1.99-1.32,2.79-1.48,2.1-3.8,3.33-6.52,4.2-.84,.27-1.76,.31-2.64,.52-.31,.02-.63,.03-.94,.05-.96,.2-2.63,.21-3.59,0-.3-.02-.6-.03-.9-.05-.83-.16-1.67-.32-2.5-.47-2.06-.67-3.92-1.36-5.57-2.41-.42-.27-.79-.65-1.18-.94-1.21-.91-3.11-3.06-1.8-5.24,.66-1.09,2.44-2.5,4.3-1.75,1.12,.45,1.9,1.37,2.88,1.98,1.26,.79,2.68,1.25,4.34,1.65,.73,.18,2.36,.27,3.16,.09,.33-.02,.66-.03,.99-.05,1.65-.39,3.09-.74,3.49-2.36,.45-1.83-1.3-2.9-2.27-3.4-3.47-1.8-8.07-2.32-11.29-4.35-1.86-1.17-3.28-2.69-4.16-4.87-.22-.54-.29-1.17-.43-1.75-.21-.88-.15-2.54,.05-3.35,.13-.55,.12-.97,.28-1.46,.64-1.95,1.87-3.51,3.4-4.58,1.3-.92,2.89-1.45,4.63-1.94,.58-.1,1.17-.19,1.75-.28,.34-.08,.86,.07,1.13-.1Zm-23.19-13.18c2.47-.03,4.09,.35,5.01,1.84,.26,.42,.43,1,.57,1.51,.12,.48,.09,1,.09,1.56,0,2.49-1.14,3.88-3.02,4.49-.54,.17-1.47,.32-2.08,.19-.58-.13-1.02-.03-1.51-.19-1.46-.48-2.36-1.45-2.83-2.93-.08-.26-.03-.46-.09-.76-.12-.52-.12-1.22,0-1.75,.13-.55,.09-1,.28-1.46,.44-1.05,1.2-1.79,2.27-2.22,.34-.14,1.03-.1,1.32-.28Zm-46.99-2.69c2.23,0,3.47,.71,4.3,2.08,.31,.51,.38,1.13,.61,1.7,.47,1.13,.84,2.33,1.32,3.5,2.96,7.18,5.35,14.69,8.31,21.87,.79,1.92,1.4,3.88,2.17,5.76,.16,.4,.47,1.72,.76,1.89v-.09c.14-.19,.14-.42,.24-.66,.28-.68,.5-1.41,.8-2.13,.86-2.08,1.53-4.26,2.41-6.38,2.78-6.73,5.02-13.77,7.79-20.5,.48-1.17,.86-2.36,1.32-3.5,.31-.74,.46-1.4,.9-1.98,.45-.61,1.12-.97,1.89-1.28,.68-.27,1.9-.42,2.74-.14,.5,.16,1.02,.42,1.42,.71,.96,.69,2.18,2.71,1.61,4.58-.34,1.11-.88,2.22-1.32,3.26-.56,1.33-.95,2.64-1.51,3.97-4.02,9.48-7.46,19.29-11.48,28.77-.81,1.9-1.48,3.85-2.27,5.72-.84,1.98-1.18,3.49-3.4,4.11-1.34,.37-2.96-.07-3.73-.61-1.11-.79-1.46-2.14-2.03-3.5-.91-2.16-1.69-4.37-2.6-6.57-2.4-5.8-4.63-11.77-7.04-17.57-.86-2.09-1.54-4.15-2.41-6.24-1-2.42-1.89-4.92-2.93-7.37-.54-1.29-1.3-2.81-1.65-4.2-.52-2.08,.98-3.95,2.08-4.63,.33-.2,.79-.36,1.18-.47,.19-.05,.38,0,.52-.09ZM81.03,20.83V62.4c0,1.26,.17,2.75-.09,3.87-.4,1.69-.87,3.06-1.7,4.3-1.46,2.18-3.5,3.46-6.33,4.3-1.25,.37-3.35,.42-4.67,.05-4.03-1.13-6.67-3.8-7.79-7.84-.38-1.36-.24-3.27-.24-4.96V12.85c0-1.56-.17-3.39,.19-4.68,.96-3.46,3.02-5.99,6.09-7.32C68.63-.08,71.04,0,74.14,0h46.66c1.11,.25,2.14,.4,3.07,.8,2.79,1.21,4.67,3.46,5.81,6.33,.25,.64,.32,1.38,.47,2.08,.23,1.02,.03,2.44-.19,3.26-.73,2.77-1.82,4.61-3.82,6.09-1.4,1.03-2.64,1.63-4.63,2.13-1.06,.27-2.47,.14-3.73,.14h-36.74Z"/></g></g></svg>